# xmcd CD database file generated by OrangeCD 4.2
#
# Track frame offsets:
#	150
#	11586
#	29727
#	40390
#	53532
#	64867
#	74972
#	84707
#	96022
#	106692
#	117707
#	130622
#
# Disc length: 1885 seconds
#
# Revision: 0
# Processed by: cddbd v1.4PL0 Copyright (c) Steve Scherf et al.
# Submitted via: OrangeCD 4.2
#
DISCID=a9075b0c
DTITLE=John Lee Hooker - Best Of John Lee Hooker
DYEAR=1999
DGENRE=Blues
TTITLE0=Boom, Boom
TTITLE1=House Rent Blues
TTITLE2=Want Ad Blues
TTITLE3=I'm So Excited
TTITLE4=Hard Headed Woman
TTITLE5=I Wanna Talk
TTITLE6=Onions
TTITLE7=What Do You Say
TTITLE8=Keep Your Hand To Yourself
TTITLE9=Send Me Your Pillow
TTITLE10=She Shot Me Down
TTITLE11=I Want To Shout
EXTD=
EXTT0=
EXTT1=
EXTT2=
EXTT3=
EXTT4=
EXTT5=
EXTT6=
EXTT7=
EXTT8=
EXTT9=
EXTT10=
EXTT11=
PLAYORDER=
